<svg width="191" height="44" viewBox="0 0 191 44" fill="none" xmlns="http://www.w3.org/2000/svg">
<path d="M56.15 27.008L50.848 21.948L56.15 16.91H58.68L53.356 21.948L58.68 27.008H56.15ZM73.1491 19.154C73.1491 20.43 72.7091 21.4933 71.8291 22.344C70.9638 23.18 69.6365 23.598 67.8471 23.598H64.8991V30H62.8971V14.666H67.8471C69.5778 14.666 70.8905 15.084 71.7851 15.92C72.6945 16.756 73.1491 17.834 73.1491 19.154ZM67.8471 21.948C68.9618 21.948 69.7831 21.706 70.3111 21.222C70.8391 20.738 71.1031 20.0487 71.1031 19.154C71.1031 17.262 70.0178 16.316 67.8471 16.316H64.8991V21.948H67.8471ZM74.8894 23.928C74.8894 22.696 75.1387 21.618 75.6374 20.694C76.136 19.7553 76.818 19.0293 77.6834 18.516C78.5634 18.0027 79.5387 17.746 80.6094 17.746C81.6654 17.746 82.582 17.9733 83.3594 18.428C84.1367 18.8827 84.716 19.4547 85.0974 20.144V17.944H87.1214V30H85.0974V27.756C84.7014 28.46 84.1074 29.0467 83.3154 29.516C82.538 29.9707 81.6287 30.198 80.5874 30.198C79.5167 30.198 78.5487 29.934 77.6834 29.406C76.818 28.878 76.136 28.1373 75.6374 27.184C75.1387 26.2307 74.8894 25.1453 74.8894 23.928ZM85.0974 23.95C85.0974 23.0407 84.914 22.2487 84.5474 21.574C84.1807 20.8993 83.682 20.386 83.0514 20.034C82.4354 19.6673 81.7534 19.484 81.0054 19.484C80.2574 19.484 79.5754 19.66 78.9594 20.012C78.3434 20.364 77.852 20.8773 77.4854 21.552C77.1187 22.2267 76.9354 23.0187 76.9354 23.928C76.9354 24.852 77.1187 25.6587 77.4854 26.348C77.852 27.0227 78.3434 27.5433 78.9594 27.91C79.5754 28.262 80.2574 28.438 81.0054 28.438C81.7534 28.438 82.4354 28.262 83.0514 27.91C83.682 27.5433 84.1807 27.0227 84.5474 26.348C84.914 25.6587 85.0974 24.8593 85.0974 23.95ZM92.5065 19.902C92.8585 19.2127 93.3572 18.6773 94.0025 18.296C94.6625 17.9147 95.4619 17.724 96.4005 17.724V19.792H95.8725C93.6285 19.792 92.5065 21.0093 92.5065 23.444V30H90.5045V17.944H92.5065V19.902ZM97.9636 23.928C97.9636 22.696 98.2129 21.618 98.7116 20.694C99.2102 19.7553 99.8922 19.0293 100.758 18.516C101.638 18.0027 102.613 17.746 103.684 17.746C104.74 17.746 105.656 17.9733 106.434 18.428C107.211 18.8827 107.79 19.4547 108.172 20.144V17.944H110.196V30H108.172V27.756C107.776 28.46 107.182 29.0467 106.39 29.516C105.612 29.9707 104.703 30.198 103.662 30.198C102.591 30.198 101.623 29.934 100.758 29.406C99.8922 28.878 99.2102 28.1373 98.7116 27.184C98.2129 26.2307 97.9636 25.1453 97.9636 23.928ZM108.172 23.95C108.172 23.0407 107.988 22.2487 107.622 21.574C107.255 20.8993 106.756 20.386 106.126 20.034C105.51 19.6673 104.828 19.484 104.08 19.484C103.332 19.484 102.65 19.66 102.034 20.012C101.418 20.364 100.926 20.8773 100.56 21.552C100.193 22.2267 100.01 23.0187 100.01 23.928C100.01 24.852 100.193 25.6587 100.56 26.348C100.926 27.0227 101.418 27.5433 102.034 27.91C102.65 28.262 103.332 28.438 104.08 28.438C104.828 28.438 105.51 28.262 106.126 27.91C106.756 27.5433 107.255 27.0227 107.622 26.348C107.988 25.6587 108.172 24.8593 108.172 23.95ZM118.551 17.746C119.592 17.746 120.501 17.9733 121.279 18.428C122.071 18.8827 122.657 19.4547 123.039 20.144V17.944H125.063V30.264C125.063 31.364 124.828 32.3393 124.359 33.19C123.889 34.0553 123.215 34.73 122.335 35.214C121.469 35.698 120.457 35.94 119.299 35.94C117.715 35.94 116.395 35.566 115.339 34.818C114.283 34.07 113.659 33.0507 113.469 31.76H115.449C115.669 32.4933 116.123 33.08 116.813 33.52C117.502 33.9747 118.331 34.202 119.299 34.202C120.399 34.202 121.293 33.8573 121.983 33.168C122.687 32.4787 123.039 31.5107 123.039 30.264V27.734C122.643 28.438 122.056 29.0247 121.279 29.494C120.501 29.9633 119.592 30.198 118.551 30.198C117.48 30.198 116.505 29.934 115.625 29.406C114.759 28.878 114.077 28.1373 113.579 27.184C113.08 26.2307 112.831 25.1453 112.831 23.928C112.831 22.696 113.08 21.618 113.579 20.694C114.077 19.7553 114.759 19.0293 115.625 18.516C116.505 18.0027 117.48 17.746 118.551 17.746ZM123.039 23.95C123.039 23.0407 122.855 22.2487 122.489 21.574C122.122 20.8993 121.623 20.386 120.993 20.034C120.377 19.6673 119.695 19.484 118.947 19.484C118.199 19.484 117.517 19.66 116.901 20.012C116.285 20.364 115.793 20.8773 115.427 21.552C115.06 22.2267 114.877 23.0187 114.877 23.928C114.877 24.852 115.06 25.6587 115.427 26.348C115.793 27.0227 116.285 27.5433 116.901 27.91C117.517 28.262 118.199 28.438 118.947 28.438C119.695 28.438 120.377 28.262 120.993 27.91C121.623 27.5433 122.122 27.0227 122.489 26.348C122.855 25.6587 123.039 24.8593 123.039 23.95ZM130.448 19.902C130.8 19.2127 131.299 18.6773 131.944 18.296C132.604 17.9147 133.403 17.724 134.342 17.724V19.792H133.814C131.57 19.792 130.448 21.0093 130.448 23.444V30H128.446V17.944H130.448V19.902ZM135.905 23.928C135.905 22.696 136.154 21.618 136.653 20.694C137.152 19.7553 137.834 19.0293 138.699 18.516C139.579 18.0027 140.554 17.746 141.625 17.746C142.681 17.746 143.598 17.9733 144.375 18.428C145.152 18.8827 145.732 19.4547 146.113 20.144V17.944H148.137V30H146.113V27.756C145.717 28.46 145.123 29.0467 144.331 29.516C143.554 29.9707 142.644 30.198 141.603 30.198C140.532 30.198 139.564 29.934 138.699 29.406C137.834 28.878 137.152 28.1373 136.653 27.184C136.154 26.2307 135.905 25.1453 135.905 23.928ZM146.113 23.95C146.113 23.0407 145.93 22.2487 145.563 21.574C145.196 20.8993 144.698 20.386 144.067 20.034C143.451 19.6673 142.769 19.484 142.021 19.484C141.273 19.484 140.591 19.66 139.975 20.012C139.359 20.364 138.868 20.8773 138.501 21.552C138.134 22.2267 137.951 23.0187 137.951 23.928C137.951 24.852 138.134 25.6587 138.501 26.348C138.868 27.0227 139.359 27.5433 139.975 27.91C140.591 28.262 141.273 28.438 142.021 28.438C142.769 28.438 143.451 28.262 144.067 27.91C144.698 27.5433 145.196 27.0227 145.563 26.348C145.93 25.6587 146.113 24.8593 146.113 23.95ZM153.522 20.166C153.918 19.4767 154.505 18.9047 155.282 18.45C156.074 17.9807 156.991 17.746 158.032 17.746C159.103 17.746 160.071 18.0027 160.936 18.516C161.816 19.0293 162.506 19.7553 163.004 20.694C163.503 21.618 163.752 22.696 163.752 23.928C163.752 25.1453 163.503 26.2307 163.004 27.184C162.506 28.1373 161.816 28.878 160.936 29.406C160.071 29.934 159.103 30.198 158.032 30.198C157.006 30.198 156.096 29.9707 155.304 29.516C154.527 29.0467 153.933 28.4673 153.522 27.778V35.72H151.52V17.944H153.522V20.166ZM161.706 23.928C161.706 23.0187 161.523 22.2267 161.156 21.552C160.79 20.8773 160.291 20.364 159.66 20.012C159.044 19.66 158.362 19.484 157.614 19.484C156.881 19.484 156.199 19.6673 155.568 20.034C154.952 20.386 154.454 20.9067 154.072 21.596C153.706 22.2707 153.522 23.0553 153.522 23.95C153.522 24.8593 153.706 25.6587 154.072 26.348C154.454 27.0227 154.952 27.5433 155.568 27.91C156.199 28.262 156.881 28.438 157.614 28.438C158.362 28.438 159.044 28.262 159.66 27.91C160.291 27.5433 160.79 27.0227 161.156 26.348C161.523 25.6587 161.706 24.852 161.706 23.928ZM172.371 17.724C173.281 17.724 174.102 17.922 174.835 18.318C175.569 18.6993 176.141 19.2787 176.551 20.056C176.977 20.8333 177.189 21.7793 177.189 22.894V30H175.209V23.18C175.209 21.9773 174.909 21.0607 174.307 20.43C173.706 19.7847 172.885 19.462 171.843 19.462C170.787 19.462 169.944 19.792 169.313 20.452C168.697 21.112 168.389 22.0727 168.389 23.334V30H166.387V13.72H168.389V19.66C168.785 19.044 169.328 18.5673 170.017 18.23C170.721 17.8927 171.506 17.724 172.371 17.724ZM180.834 16.91H183.364L188.688 21.948L183.364 27.008H180.834L186.158 21.948L180.834 16.91Z" fill="white"/>
<g clip-path="url(#clip0_16_22)">
<path d="M12.004 22.019L4.77053 19.952C4.50703 19.879 4.22853 20.0295 4.15253 20.296C4.07703 20.561 4.23053 20.838 4.49653 20.914L11.73 22.981C11.7755 22.9935 11.8215 23 11.867 23C12.0845 23 12.2845 22.857 12.3475 22.637C12.4235 22.372 12.2695 22.095 12.004 22.019Z" fill="white"/>
<path d="M12.004 25.519L4.77053 23.4525C4.50703 23.3795 4.22853 23.53 4.15253 23.7965C4.07703 24.062 4.23053 24.3385 4.49653 24.4145L11.73 26.481C11.7755 26.4935 11.8215 26.5 11.867 26.5C12.0845 26.5 12.2845 26.357 12.3475 26.137C12.4235 25.8715 12.2695 25.595 12.004 25.519Z" fill="white"/>
<path d="M12.004 18.519L4.77053 16.452C4.50703 16.379 4.22853 16.5295 4.15253 16.796C4.07703 17.061 4.23053 17.338 4.49653 17.414L11.73 19.481C11.7755 19.4935 11.8215 19.5 11.867 19.5C12.0845 19.5 12.2845 19.357 12.3475 19.137C12.4235 18.872 12.2695 18.595 12.004 18.519Z" fill="white"/>
<path d="M12.004 15.019L4.77053 12.952C4.50703 12.879 4.22853 13.0295 4.15253 13.296C4.07703 13.561 4.23053 13.838 4.49653 13.914L11.73 15.981C11.7755 15.9935 11.8215 16 11.867 16C12.0845 16 12.2845 15.857 12.3475 15.637C12.4235 15.372 12.2695 15.095 12.004 15.019Z" fill="white"/>
<path d="M19.9815 22.981C20.0275 22.981 20.0735 22.9745 20.119 22.962L27.3525 20.895C27.618 20.819 27.772 20.542 27.6965 20.277C27.6205 20.011 27.3425 19.861 27.0785 19.933L19.8445 22C19.579 22.076 19.425 22.353 19.5005 22.618C19.564 22.838 19.764 22.981 19.9815 22.981Z" fill="white"/>
<path d="M27.2295 23.4525L19.996 25.519C19.7305 25.595 19.5765 25.8715 19.652 26.137C19.7155 26.357 19.9155 26.5 20.133 26.5C20.179 26.5 20.225 26.4935 20.2705 26.481L27.504 24.4145C27.7695 24.3385 27.9235 24.062 27.848 23.7965C27.7715 23.5305 27.4935 23.3805 27.2295 23.4525Z" fill="white"/>
<path d="M27.2295 16.452L19.996 18.519C19.7305 18.595 19.5765 18.872 19.652 19.137C19.7155 19.357 19.9155 19.5 20.133 19.5C20.179 19.5 20.225 19.4935 20.2705 19.481L27.504 17.414C27.7695 17.338 27.9235 17.061 27.848 16.796C27.7715 16.53 27.4935 16.379 27.2295 16.452Z" fill="white"/>
<path d="M27.2295 12.952L19.996 15.019C19.7305 15.095 19.5765 15.372 19.652 15.637C19.7155 15.857 19.9155 16 20.133 16C20.179 16 20.225 15.9935 20.2705 15.981L27.504 13.914C27.7695 13.838 27.9235 13.561 27.848 13.296C27.7715 13.03 27.4935 12.88 27.2295 12.952Z" fill="white"/>
<path d="M31.6095 6.207C31.4325 6.0715 31.2175 6.0005 30.999 6.0005C30.913 6.0005 30.8265 6.0115 30.742 6.0335L16 9.965L1.258 6.0335C1.173 6.011 1.0865 6.0005 1.0005 6.0005C0.782 6.0005 0.5675 6.0715 0.3905 6.207C0.1445 6.3965 0 6.6895 0 7V31.9995C0 32.4525 0.3045 32.849 0.742 32.966L13.6785 36.4155C14.0445 37.3425 14.9435 38 16 38C17.0565 38 17.9555 37.3425 18.3215 36.4155L31.258 32.966C31.6955 32.849 32 32.4525 32 31.9995V7C32 6.6895 31.8555 6.3965 31.6095 6.207ZM16 33C16.0865 33 16.1735 32.989 16.258 32.9665L31 29.035V30.012L16 33.9825L1 30.012V29.035L15.742 32.966C15.8265 32.989 15.9135 33 16 33ZM0.999 7.0005C0.999 7.0005 0.9995 7.0005 1.0005 7.0005L15.5 10.8665V31.8665L1 28L0.999 7.0005ZM17.4895 35.6025C17.45 36.174 17.097 36.658 16.5955 36.8755L16.2575 36.966C16.173 36.9885 16.086 36.9995 15.9995 36.9995C15.913 36.9995 15.826 36.9885 15.7415 36.966L15.4035 36.8755C14.902 36.658 14.549 36.174 14.5095 35.6025L1 31.9995V31.0465L15.872 34.9835C15.914 34.9945 15.957 35 16 35C16.043 35 16.086 34.9945 16.128 34.9835L31 31.0465V31.9995L17.4895 35.6025ZM16.5 31.8665V10.8665L31 7V28L16.5 31.8665Z" fill="white"/>
</g>
<rect x="41" width="2" height="44" rx="1" fill="white"/>
<defs>
<clipPath id="clip0_16_22">
<rect width="32" height="32" fill="white" transform="translate(0 6)"/>
</clipPath>
</defs>
</svg>
